<mxfile host="app.diagrams.net" modified="2022-06-21T02:37:50.018Z" agent="5.0 (Windows NT 10.0; Win64; x64) AppleWebKit/537.36 (KHTML, like Gecko) Chrome/102.0.0.0 Safari/537.36" etag="0B_PTh-_osWdiy28Z1KA" version="20.0.1" type="github">
  <diagram id="ZFM-qC4R8ZPciTshkOly" name="Page-1">
    <mxGraphModel dx="1930" dy="2363" grid="1" gridSize="10" guides="1" tooltips="1" connect="1" arrows="1" fold="1" page="1" pageScale="1" pageWidth="827" pageHeight="1169" math="0" shadow="0">
      <root>
        <mxCell id="0" />
        <mxCell id="1" parent="0" />
        <mxCell id="pVwDu6yBrwNiej8qQjBI-162" value="" style="rounded=0;whiteSpace=wrap;html=1;fontSize=19;fillColor=#e1d5e7;strokeColor=#9673a6;" parent="1" vertex="1">
          <mxGeometry x="550" y="814" width="1520" height="280" as="geometry" />
        </mxCell>
        <mxCell id="pVwDu6yBrwNiej8qQjBI-163" value="" style="rounded=0;whiteSpace=wrap;html=1;fontSize=19;fontColor=#333333;fillColor=#f5f5f5;strokeColor=#666666;" parent="1" vertex="1">
          <mxGeometry x="551" y="-60" width="1339" height="690" as="geometry" />
        </mxCell>
        <mxCell id="pVwDu6yBrwNiej8qQjBI-164" value="&lt;b&gt;&lt;font style=&quot;font-size: 20px&quot;&gt;THIẾT BỊ HẠ TẦNG&lt;/font&gt;&lt;/b&gt;" style="rounded=0;whiteSpace=wrap;html=1;fillColor=#fff2cc;strokeColor=#d6b656;" parent="1" vertex="1">
          <mxGeometry x="40" y="1156" width="200" height="164" as="geometry" />
        </mxCell>
        <mxCell id="pVwDu6yBrwNiej8qQjBI-165" value="" style="rounded=0;whiteSpace=wrap;html=1;fontSize=19;fillColor=#fff2cc;strokeColor=#d6b656;gradientColor=#ffd966;" parent="1" vertex="1">
          <mxGeometry x="550" y="1153" width="1520" height="164" as="geometry" />
        </mxCell>
        <mxCell id="pVwDu6yBrwNiej8qQjBI-166" value="" style="rounded=0;whiteSpace=wrap;html=1;fontSize=15;fontColor=#000000;fillColor=#A9C4EB;" parent="1" vertex="1">
          <mxGeometry x="609" y="1200" width="314" height="80" as="geometry" />
        </mxCell>
        <mxCell id="pVwDu6yBrwNiej8qQjBI-167" value="&lt;b&gt;TRUNG TÂM DỮ LIỆU(DC-DR)&lt;/b&gt;" style="text;html=1;strokeColor=none;fillColor=none;align=center;verticalAlign=middle;whiteSpace=wrap;rounded=0;fontSize=15;fontColor=#000000;" parent="1" vertex="1">
          <mxGeometry x="699" y="1225" width="214" height="30" as="geometry" />
        </mxCell>
        <mxCell id="pVwDu6yBrwNiej8qQjBI-168" value="" style="rounded=0;whiteSpace=wrap;html=1;fontSize=15;fontColor=#000000;fillColor=#A9C4EB;" parent="1" vertex="1">
          <mxGeometry x="1086.26" y="1200" width="360" height="80" as="geometry" />
        </mxCell>
        <mxCell id="pVwDu6yBrwNiej8qQjBI-169" value="&lt;b&gt;MẠNG INTERNET/TSICD/DI ĐỘNG/WIFI&lt;/b&gt;" style="text;html=1;strokeColor=none;fillColor=none;align=center;verticalAlign=middle;whiteSpace=wrap;rounded=0;fontSize=15;fontColor=#000000;" parent="1" vertex="1">
          <mxGeometry x="1096.26" y="1226" width="200" height="30" as="geometry" />
        </mxCell>
        <mxCell id="pVwDu6yBrwNiej8qQjBI-170" value="" style="shape=image;verticalLabelPosition=bottom;labelBackgroundColor=default;verticalAlign=top;aspect=fixed;imageAspect=0;image=https://icon-library.com/images/datacenter-icon/datacenter-icon-24.jpg;" parent="1" vertex="1">
          <mxGeometry x="622.26" y="1204.25" width="71.5" height="71.5" as="geometry" />
        </mxCell>
        <mxCell id="pVwDu6yBrwNiej8qQjBI-171" value="" style="rounded=0;whiteSpace=wrap;html=1;fontSize=15;fontColor=#000000;fillColor=#A9C4EB;" parent="1" vertex="1">
          <mxGeometry x="1631" y="1200" width="360" height="80" as="geometry" />
        </mxCell>
        <mxCell id="pVwDu6yBrwNiej8qQjBI-172" value="&lt;b&gt;HỘI NGHỊ TRUYỀN HÌNH&lt;/b&gt;" style="text;html=1;strokeColor=none;fillColor=none;align=center;verticalAlign=middle;whiteSpace=wrap;rounded=0;fontSize=15;fontColor=#000000;" parent="1" vertex="1">
          <mxGeometry x="1641" y="1225" width="200" height="30" as="geometry" />
        </mxCell>
        <mxCell id="pVwDu6yBrwNiej8qQjBI-173" value="" style="shape=image;verticalLabelPosition=bottom;labelBackgroundColor=default;verticalAlign=top;aspect=fixed;imageAspect=0;image=https://cdn.iconscout.com/icon/free/png-256/wifi-router-123-1120579.png;" parent="1" vertex="1">
          <mxGeometry x="1891" y="1203.5" width="73" height="73" as="geometry" />
        </mxCell>
        <mxCell id="pVwDu6yBrwNiej8qQjBI-174" value="" style="shape=image;verticalLabelPosition=bottom;labelBackgroundColor=default;verticalAlign=top;aspect=fixed;imageAspect=0;image=https://cdn-icons-png.flaticon.com/512/3485/3485646.png;" parent="1" vertex="1">
          <mxGeometry x="1358.26" y="1214.75" width="55.5" height="55.5" as="geometry" />
        </mxCell>
        <mxCell id="pVwDu6yBrwNiej8qQjBI-175" value="&lt;font style=&quot;font-size: 20px&quot;&gt;&lt;b&gt;LỚP DỮ LIỆU&lt;/b&gt;&lt;/font&gt;" style="rounded=0;whiteSpace=wrap;html=1;fillColor=#fff2cc;strokeColor=#d6b656;" parent="1" vertex="1">
          <mxGeometry x="40" y="807" width="200" height="280" as="geometry" />
        </mxCell>
        <mxCell id="pVwDu6yBrwNiej8qQjBI-176" value="" style="rounded=0;whiteSpace=wrap;html=1;fontSize=15;fontColor=#000000;fillColor=#DBEBEA;" parent="1" vertex="1">
          <mxGeometry x="560" y="854" width="580" height="197" as="geometry" />
        </mxCell>
        <mxCell id="pVwDu6yBrwNiej8qQjBI-177" value="&lt;b&gt;PHÂN VÙNG CSDL TÁC NGHIỆP&lt;br&gt;&lt;/b&gt;" style="text;html=1;strokeColor=none;fillColor=none;align=center;verticalAlign=middle;whiteSpace=wrap;rounded=0;fontSize=15;fontColor=#000000;" parent="1" vertex="1">
          <mxGeometry x="570" y="863" width="240" height="30" as="geometry" />
        </mxCell>
        <mxCell id="pVwDu6yBrwNiej8qQjBI-178" value="x" style="rounded=0;whiteSpace=wrap;html=1;fontSize=20;fillColor=#eeeeee;strokeColor=#36393d;" parent="1" vertex="1">
          <mxGeometry x="2352" y="-479" width="368" height="1800" as="geometry" />
        </mxCell>
        <mxCell id="pVwDu6yBrwNiej8qQjBI-179" value="&lt;font style=&quot;font-size: 20px&quot;&gt;&lt;b&gt;LỚP ỨNG DỤNG&lt;br&gt;&lt;/b&gt;&lt;/font&gt;" style="rounded=0;whiteSpace=wrap;html=1;fillColor=#fff2cc;strokeColor=#d6b656;" parent="1" vertex="1">
          <mxGeometry x="40" y="54" width="200" height="576" as="geometry" />
        </mxCell>
        <mxCell id="pVwDu6yBrwNiej8qQjBI-180" value="&lt;p style=&quot;margin: 4px 0px 0px ; text-align: center ; font-size: 17px&quot;&gt;&lt;b&gt;NHÓM ỨNG DỤNG QUẢN TRỊ ĐIỀU HÀNH&lt;/b&gt;&lt;/p&gt;" style="verticalAlign=top;align=left;overflow=fill;fontSize=12;fontFamily=Helvetica;html=1;fillColor=#dae8fc;strokeColor=#6c8ebf;" parent="1" vertex="1">
          <mxGeometry x="569.5" y="-20" width="610.5" height="300" as="geometry" />
        </mxCell>
        <mxCell id="pVwDu6yBrwNiej8qQjBI-181" value="" style="rounded=0;whiteSpace=wrap;html=1;fontSize=19;fontColor=#333333;fillColor=#f5f5f5;strokeColor=#666666;" parent="1" vertex="1">
          <mxGeometry x="550" y="-217" width="1520" height="140" as="geometry" />
        </mxCell>
        <mxCell id="pVwDu6yBrwNiej8qQjBI-182" value="&lt;font style=&quot;font-size: 20px&quot;&gt;&lt;b&gt;LỚP GIAO DIỆN&lt;br&gt;&lt;/b&gt;&lt;/font&gt;" style="rounded=0;whiteSpace=wrap;html=1;fillColor=#fff2cc;strokeColor=#d6b656;" parent="1" vertex="1">
          <mxGeometry x="30" y="-212" width="200" height="140" as="geometry" />
        </mxCell>
        <mxCell id="pVwDu6yBrwNiej8qQjBI-183" value="" style="rounded=0;whiteSpace=wrap;html=1;fontSize=15;fillColor=#fff2cc;gradientColor=#ffd966;strokeColor=#d6b656;" parent="1" vertex="1">
          <mxGeometry x="619" y="-182" width="326" height="80" as="geometry" />
        </mxCell>
        <mxCell id="pVwDu6yBrwNiej8qQjBI-184" value="PORTAL" style="text;html=1;strokeColor=none;fillColor=none;align=center;verticalAlign=middle;whiteSpace=wrap;rounded=0;fontSize=15;fontColor=#000000;fontStyle=1" parent="1" vertex="1">
          <mxGeometry x="704" y="-155" width="201" height="30" as="geometry" />
        </mxCell>
        <mxCell id="pVwDu6yBrwNiej8qQjBI-185" style="edgeStyle=orthogonalEdgeStyle;rounded=0;orthogonalLoop=1;jettySize=auto;html=1;exitX=0.75;exitY=1;exitDx=0;exitDy=0;entryX=0.7;entryY=0.808;entryDx=0;entryDy=0;entryPerimeter=0;fontSize=20;" parent="1" edge="1">
          <mxGeometry relative="1" as="geometry">
            <mxPoint x="1600.0200000000004" y="-126.25" as="sourcePoint" />
            <mxPoint x="1589.9699999999993" y="-132.00999999999976" as="targetPoint" />
          </mxGeometry>
        </mxCell>
        <mxCell id="pVwDu6yBrwNiej8qQjBI-186" value="" style="rounded=0;whiteSpace=wrap;html=1;fontSize=15;fillColor=#fff2cc;gradientColor=#ffd966;strokeColor=#d6b656;" parent="1" vertex="1">
          <mxGeometry x="977" y="-183.25" width="326" height="80" as="geometry" />
        </mxCell>
        <mxCell id="pVwDu6yBrwNiej8qQjBI-187" value="MOBILE APP" style="text;html=1;strokeColor=none;fillColor=none;align=center;verticalAlign=middle;whiteSpace=wrap;rounded=0;fontSize=15;fontColor=#000000;fontStyle=1" parent="1" vertex="1">
          <mxGeometry x="1062" y="-156.25" width="201" height="30" as="geometry" />
        </mxCell>
        <mxCell id="pVwDu6yBrwNiej8qQjBI-188" value="" style="rounded=0;whiteSpace=wrap;html=1;fontSize=15;fillColor=#fff2cc;gradientColor=#ffd966;strokeColor=#d6b656;" parent="1" vertex="1">
          <mxGeometry x="1337" y="-183.25" width="326" height="80" as="geometry" />
        </mxCell>
        <mxCell id="pVwDu6yBrwNiej8qQjBI-189" value="WEBSITE" style="text;html=1;strokeColor=none;fillColor=none;align=center;verticalAlign=middle;whiteSpace=wrap;rounded=0;fontSize=15;fontColor=#000000;fontStyle=1" parent="1" vertex="1">
          <mxGeometry x="1422" y="-156.25" width="201" height="30" as="geometry" />
        </mxCell>
        <mxCell id="pVwDu6yBrwNiej8qQjBI-190" value="" style="rounded=0;whiteSpace=wrap;html=1;fontSize=15;fillColor=#fff2cc;gradientColor=#ffd966;strokeColor=#d6b656;" parent="1" vertex="1">
          <mxGeometry x="1695" y="-181.25" width="326" height="80" as="geometry" />
        </mxCell>
        <mxCell id="pVwDu6yBrwNiej8qQjBI-191" value="CÔNG CỤ TRÌNH DIỄN KHÁC" style="text;html=1;strokeColor=none;fillColor=none;align=center;verticalAlign=middle;whiteSpace=wrap;rounded=0;fontSize=15;fontColor=#000000;fontStyle=1" parent="1" vertex="1">
          <mxGeometry x="1780" y="-154.25" width="201" height="30" as="geometry" />
        </mxCell>
        <mxCell id="pVwDu6yBrwNiej8qQjBI-192" value="" style="outlineConnect=0;dashed=0;verticalLabelPosition=bottom;verticalAlign=top;align=center;html=1;shape=mxgraph.aws3.mobile_client;fillColor=#D2D3D3;gradientColor=none;fontSize=20;" parent="1" vertex="1">
          <mxGeometry x="1002.5" y="-174.75" width="40.5" height="63" as="geometry" />
        </mxCell>
        <mxCell id="pVwDu6yBrwNiej8qQjBI-193" value="" style="verticalLabelPosition=bottom;verticalAlign=top;html=1;shadow=0;dashed=0;strokeWidth=1;shape=mxgraph.android.phone2;strokeColor=#c0c0c0;fontSize=20;fillColor=#003366;" parent="1" vertex="1">
          <mxGeometry x="1360.27" y="-170" width="37.73" height="54.75" as="geometry" />
        </mxCell>
        <mxCell id="pVwDu6yBrwNiej8qQjBI-194" value="" style="sketch=0;points=[[0,0,0],[0.25,0,0],[0.5,0,0],[0.75,0,0],[1,0,0],[0,1,0],[0.25,1,0],[0.5,1,0],[0.75,1,0],[1,1,0],[0,0.25,0],[0,0.5,0],[0,0.75,0],[1,0.25,0],[1,0.5,0],[1,0.75,0]];points=[[0,0,0],[0.25,0,0],[0.5,0,0],[0.75,0,0],[1,0,0],[0,1,0],[0.25,1,0],[0.5,1,0],[0.75,1,0],[1,1,0],[0,0.25,0],[0,0.5,0],[0,0.75,0],[1,0.25,0],[1,0.5,0],[1,0.75,0]];outlineConnect=0;fontColor=#232F3E;gradientColor=#F34482;gradientDirection=north;fillColor=#BC1356;strokeColor=#ffffff;dashed=0;verticalLabelPosition=bottom;verticalAlign=top;align=center;html=1;fontSize=12;fontStyle=0;aspect=fixed;shape=mxgraph.aws4.resourceIcon;resIcon=mxgraph.aws4.chatbot;" parent="1" vertex="1">
          <mxGeometry x="1713.25" y="-173.62" width="66.75" height="66.75" as="geometry" />
        </mxCell>
        <mxCell id="pVwDu6yBrwNiej8qQjBI-195" value="" style="sketch=0;pointerEvents=1;shadow=0;dashed=0;html=1;strokeColor=none;labelPosition=center;verticalLabelPosition=bottom;verticalAlign=top;align=center;fillColor=#505050;shape=mxgraph.mscae.intune.company_portal;fontSize=20;" parent="1" vertex="1">
          <mxGeometry x="634" y="-172.5" width="70" height="61" as="geometry" />
        </mxCell>
        <mxCell id="pVwDu6yBrwNiej8qQjBI-198" value="" style="rounded=0;whiteSpace=wrap;html=1;fontSize=15;" parent="1" vertex="1">
          <mxGeometry x="584" y="-370" width="278" height="80" as="geometry" />
        </mxCell>
        <mxCell id="pVwDu6yBrwNiej8qQjBI-199" value="" style="rounded=0;whiteSpace=wrap;html=1;fontSize=15;" parent="1" vertex="1">
          <mxGeometry x="882" y="-370" width="278" height="80" as="geometry" />
        </mxCell>
        <mxCell id="pVwDu6yBrwNiej8qQjBI-200" value="" style="rounded=0;whiteSpace=wrap;html=1;fontSize=15;" parent="1" vertex="1">
          <mxGeometry x="1179.27" y="-370" width="278" height="80" as="geometry" />
        </mxCell>
        <mxCell id="pVwDu6yBrwNiej8qQjBI-201" value="" style="rounded=0;whiteSpace=wrap;html=1;fontSize=15;" parent="1" vertex="1">
          <mxGeometry x="1475.27" y="-370" width="278" height="80" as="geometry" />
        </mxCell>
        <mxCell id="pVwDu6yBrwNiej8qQjBI-202" value="" style="rounded=0;whiteSpace=wrap;html=1;fontSize=15;" parent="1" vertex="1">
          <mxGeometry x="1774" y="-370" width="278" height="80" as="geometry" />
        </mxCell>
        <mxCell id="pVwDu6yBrwNiej8qQjBI-203" value="LĐ TCDL" style="text;html=1;strokeColor=none;fillColor=none;align=center;verticalAlign=middle;whiteSpace=wrap;rounded=0;fontSize=15;fontColor=#000000;fontStyle=1" parent="1" vertex="1">
          <mxGeometry x="666" y="-343" width="166" height="30" as="geometry" />
        </mxCell>
        <mxCell id="pVwDu6yBrwNiej8qQjBI-205" value="CB QUẢN LÝ CÁC CỤC" style="text;html=1;strokeColor=none;fillColor=none;align=center;verticalAlign=middle;whiteSpace=wrap;rounded=0;fontSize=15;fontColor=#000000;fontStyle=1" parent="1" vertex="1">
          <mxGeometry x="972" y="-343" width="166" height="30" as="geometry" />
        </mxCell>
        <mxCell id="pVwDu6yBrwNiej8qQjBI-207" value="63 ĐƠN VI TỈNH THÀNH" style="text;html=1;strokeColor=none;fillColor=none;align=center;verticalAlign=middle;whiteSpace=wrap;rounded=0;fontSize=15;fontColor=#000000;fontStyle=1" parent="1" vertex="1">
          <mxGeometry x="1274" y="-341" width="166" height="30" as="geometry" />
        </mxCell>
        <mxCell id="pVwDu6yBrwNiej8qQjBI-209" value="DOANH NGHIỆP" style="text;html=1;strokeColor=none;fillColor=none;align=center;verticalAlign=middle;whiteSpace=wrap;rounded=0;fontSize=15;fontColor=#000000;fontStyle=1" parent="1" vertex="1">
          <mxGeometry x="1566.27" y="-343" width="166" height="30" as="geometry" />
        </mxCell>
        <mxCell id="pVwDu6yBrwNiej8qQjBI-211" value="KHÁCH DU LỊCH" style="text;html=1;strokeColor=none;fillColor=none;align=center;verticalAlign=middle;whiteSpace=wrap;rounded=0;fontSize=15;fontColor=#000000;fontStyle=1" parent="1" vertex="1">
          <mxGeometry x="1865" y="-343" width="166" height="30" as="geometry" />
        </mxCell>
        <mxCell id="pVwDu6yBrwNiej8qQjBI-213" value="" style="shape=cylinder3;whiteSpace=wrap;html=1;boundedLbl=1;backgroundOutline=1;size=15;fontSize=20;fillColor=#d5e8d4;gradientColor=#97d077;strokeColor=#82b366;" parent="1" vertex="1">
          <mxGeometry x="2169" y="-270" width="100" height="1360" as="geometry" />
        </mxCell>
        <mxCell id="pVwDu6yBrwNiej8qQjBI-214" value="NỀN TẢNG TÍCH HỢP VÀ CHIA SẺ DỮ LIỆU" style="text;html=1;strokeColor=none;fillColor=none;align=center;verticalAlign=middle;whiteSpace=wrap;rounded=0;fontSize=20;rotation=-90;fontStyle=1" parent="1" vertex="1">
          <mxGeometry x="1869" y="265.5" width="700" height="30" as="geometry" />
        </mxCell>
        <mxCell id="pVwDu6yBrwNiej8qQjBI-215" value="" style="rounded=0;whiteSpace=wrap;html=1;fontSize=15;fillColor=#d5e8d4;gradientColor=#97d077;strokeColor=#82b366;" parent="1" vertex="1">
          <mxGeometry x="2410" y="-450" width="270" height="240" as="geometry" />
        </mxCell>
        <mxCell id="pVwDu6yBrwNiej8qQjBI-216" value="" style="shape=image;verticalLabelPosition=bottom;labelBackgroundColor=default;verticalAlign=top;aspect=fixed;imageAspect=0;image=https://www.pngkey.com/png/full/231-2317122_delete-database-icon-database.png;" parent="1" vertex="1">
          <mxGeometry x="2440" y="-355" width="56.53" height="50" as="geometry" />
        </mxCell>
        <mxCell id="pVwDu6yBrwNiej8qQjBI-217" value="&lt;font style=&quot;font-size: 20px;&quot;&gt;CÁC DOANH NGHIỆP HOẠT ĐỘNG TRONG LĨNH VỰC DU LỊCH&lt;/font&gt;" style="text;html=1;strokeColor=none;fillColor=none;align=center;verticalAlign=middle;whiteSpace=wrap;rounded=0;fontSize=15;fontColor=#000000;fontStyle=1" parent="1" vertex="1">
          <mxGeometry x="2510" y="-450" width="150" height="240" as="geometry" />
        </mxCell>
        <mxCell id="pVwDu6yBrwNiej8qQjBI-218" value="" style="rounded=0;whiteSpace=wrap;html=1;fontSize=15;fillColor=#d5e8d4;gradientColor=#97d077;strokeColor=#82b366;" parent="1" vertex="1">
          <mxGeometry x="2410" y="-141" width="270" height="240" as="geometry" />
        </mxCell>
        <mxCell id="pVwDu6yBrwNiej8qQjBI-219" value="" style="shape=image;verticalLabelPosition=bottom;labelBackgroundColor=default;verticalAlign=top;aspect=fixed;imageAspect=0;image=https://www.pngkey.com/png/full/231-2317122_delete-database-icon-database.png;" parent="1" vertex="1">
          <mxGeometry x="2440" y="-46" width="56.53" height="50" as="geometry" />
        </mxCell>
        <mxCell id="pVwDu6yBrwNiej8qQjBI-220" value="&lt;font style=&quot;font-size: 20px;&quot;&gt;CSDL DÂN CƯ&lt;/font&gt;" style="text;html=1;strokeColor=none;fillColor=none;align=center;verticalAlign=middle;whiteSpace=wrap;rounded=0;fontSize=15;fontColor=#000000;fontStyle=1" parent="1" vertex="1">
          <mxGeometry x="2510" y="-141" width="150" height="240" as="geometry" />
        </mxCell>
        <mxCell id="pVwDu6yBrwNiej8qQjBI-221" value="" style="rounded=0;whiteSpace=wrap;html=1;fontSize=15;fillColor=#d5e8d4;gradientColor=#97d077;strokeColor=#82b366;" parent="1" vertex="1">
          <mxGeometry x="2410" y="166" width="270" height="240" as="geometry" />
        </mxCell>
        <mxCell id="pVwDu6yBrwNiej8qQjBI-222" value="" style="shape=image;verticalLabelPosition=bottom;labelBackgroundColor=default;verticalAlign=top;aspect=fixed;imageAspect=0;image=https://www.pngkey.com/png/full/231-2317122_delete-database-icon-database.png;" parent="1" vertex="1">
          <mxGeometry x="2440" y="261" width="56.53" height="50" as="geometry" />
        </mxCell>
        <mxCell id="pVwDu6yBrwNiej8qQjBI-223" value="&lt;font style=&quot;font-size: 20px;&quot;&gt;TỔNG CỤC THUẾ&lt;/font&gt;" style="text;html=1;strokeColor=none;fillColor=none;align=center;verticalAlign=middle;whiteSpace=wrap;rounded=0;fontSize=15;fontColor=#000000;fontStyle=1" parent="1" vertex="1">
          <mxGeometry x="2510" y="166" width="150" height="240" as="geometry" />
        </mxCell>
        <mxCell id="pVwDu6yBrwNiej8qQjBI-224" value="" style="rounded=0;whiteSpace=wrap;html=1;fontSize=15;fillColor=#d5e8d4;gradientColor=#97d077;strokeColor=#82b366;" parent="1" vertex="1">
          <mxGeometry x="2410" y="464" width="270" height="240" as="geometry" />
        </mxCell>
        <mxCell id="pVwDu6yBrwNiej8qQjBI-225" value="" style="shape=image;verticalLabelPosition=bottom;labelBackgroundColor=default;verticalAlign=top;aspect=fixed;imageAspect=0;image=https://www.pngkey.com/png/full/231-2317122_delete-database-icon-database.png;" parent="1" vertex="1">
          <mxGeometry x="2440" y="559" width="56.53" height="50" as="geometry" />
        </mxCell>
        <mxCell id="pVwDu6yBrwNiej8qQjBI-226" value="&lt;font style=&quot;font-size: 20px;&quot;&gt;XUẤT NHẬP CẢNH&lt;/font&gt;" style="text;html=1;strokeColor=none;fillColor=none;align=center;verticalAlign=middle;whiteSpace=wrap;rounded=0;fontSize=15;fontColor=#000000;fontStyle=1" parent="1" vertex="1">
          <mxGeometry x="2510" y="464" width="150" height="240" as="geometry" />
        </mxCell>
        <mxCell id="pVwDu6yBrwNiej8qQjBI-227" value="" style="rounded=0;whiteSpace=wrap;html=1;fontSize=15;fillColor=#d5e8d4;gradientColor=#97d077;strokeColor=#82b366;" parent="1" vertex="1">
          <mxGeometry x="2409" y="748" width="270" height="240" as="geometry" />
        </mxCell>
        <mxCell id="pVwDu6yBrwNiej8qQjBI-228" value="" style="shape=image;verticalLabelPosition=bottom;labelBackgroundColor=default;verticalAlign=top;aspect=fixed;imageAspect=0;image=https://www.pngkey.com/png/full/231-2317122_delete-database-icon-database.png;" parent="1" vertex="1">
          <mxGeometry x="2439" y="843" width="56.53" height="50" as="geometry" />
        </mxCell>
        <mxCell id="pVwDu6yBrwNiej8qQjBI-229" value="&lt;font style=&quot;font-size: 20px;&quot;&gt;BẢO HIỂM DU LỊCH&lt;/font&gt;" style="text;html=1;strokeColor=none;fillColor=none;align=center;verticalAlign=middle;whiteSpace=wrap;rounded=0;fontSize=15;fontColor=#000000;fontStyle=1" parent="1" vertex="1">
          <mxGeometry x="2509" y="748" width="150" height="240" as="geometry" />
        </mxCell>
        <mxCell id="pVwDu6yBrwNiej8qQjBI-230" value="" style="rounded=0;whiteSpace=wrap;html=1;fontSize=15;fillColor=#d5e8d4;gradientColor=#97d077;strokeColor=#82b366;" parent="1" vertex="1">
          <mxGeometry x="2410" y="1034.5" width="270" height="240" as="geometry" />
        </mxCell>
        <mxCell id="pVwDu6yBrwNiej8qQjBI-231" value="" style="shape=image;verticalLabelPosition=bottom;labelBackgroundColor=default;verticalAlign=top;aspect=fixed;imageAspect=0;image=https://www.pngkey.com/png/full/231-2317122_delete-database-icon-database.png;" parent="1" vertex="1">
          <mxGeometry x="2440" y="1129.5" width="56.53" height="50" as="geometry" />
        </mxCell>
        <mxCell id="pVwDu6yBrwNiej8qQjBI-232" value="&lt;font style=&quot;font-size: 20px;&quot;&gt;BỘ VHTT DL&lt;/font&gt;" style="text;html=1;strokeColor=none;fillColor=none;align=center;verticalAlign=middle;whiteSpace=wrap;rounded=0;fontSize=15;fontColor=#000000;fontStyle=1" parent="1" vertex="1">
          <mxGeometry x="2510" y="1034.5" width="150" height="240" as="geometry" />
        </mxCell>
        <mxCell id="pVwDu6yBrwNiej8qQjBI-233" value="" style="rounded=0;whiteSpace=wrap;html=1;fontSize=20;fillColor=#dae8fc;strokeColor=#6c8ebf;" parent="1" vertex="1">
          <mxGeometry x="280" y="-280" width="70" height="1600" as="geometry" />
        </mxCell>
        <mxCell id="pVwDu6yBrwNiej8qQjBI-234" value="" style="rounded=0;whiteSpace=wrap;html=1;fontSize=20;fillColor=#f5f5f5;strokeColor=#666666;gradientColor=#b3b3b3;" parent="1" vertex="1">
          <mxGeometry x="1910" y="-60" width="170" height="830" as="geometry" />
        </mxCell>
        <mxCell id="pVwDu6yBrwNiej8qQjBI-235" value="" style="rounded=0;whiteSpace=wrap;html=1;fontSize=20;fillColor=#d5e8d4;strokeColor=#82b366;" parent="1" vertex="1">
          <mxGeometry x="370" y="-280" width="70" height="1600" as="geometry" />
        </mxCell>
        <mxCell id="pVwDu6yBrwNiej8qQjBI-236" value="AN TOÀN, AN NINH THÔNG TIN" style="text;html=1;strokeColor=none;fillColor=none;align=center;verticalAlign=middle;whiteSpace=wrap;rounded=0;fontSize=20;rotation=-90;fontStyle=1" parent="1" vertex="1">
          <mxGeometry x="-30" y="352" width="700" height="30" as="geometry" />
        </mxCell>
        <mxCell id="pVwDu6yBrwNiej8qQjBI-237" value="ỨNG DỤNG NỀN TẢNG" style="text;html=1;strokeColor=none;fillColor=none;align=center;verticalAlign=middle;whiteSpace=wrap;rounded=0;fontSize=20;rotation=0;fontStyle=1" parent="1" vertex="1">
          <mxGeometry x="1921" y="-65" width="150" height="73.5" as="geometry" />
        </mxCell>
        <mxCell id="pVwDu6yBrwNiej8qQjBI-238" value="QUẢN TRỊ VẬN HÀNH GIÁM SÁT" style="text;html=1;strokeColor=none;fillColor=none;align=center;verticalAlign=middle;whiteSpace=wrap;rounded=0;fontSize=20;rotation=-90;fontStyle=1" parent="1" vertex="1">
          <mxGeometry x="55" y="336.5" width="700" height="30" as="geometry" />
        </mxCell>
        <mxCell id="pVwDu6yBrwNiej8qQjBI-241" value="" style="rounded=0;whiteSpace=wrap;html=1;fontSize=15;fontColor=#000000;fillColor=#D1EBE5;" parent="1" vertex="1">
          <mxGeometry x="1153" y="855.5" width="527" height="197" as="geometry" />
        </mxCell>
        <mxCell id="pVwDu6yBrwNiej8qQjBI-242" value="&lt;b&gt;PHÂN VÙNG KHO DỮ LIỆU&lt;br&gt;&lt;/b&gt;" style="text;html=1;strokeColor=none;fillColor=none;align=center;verticalAlign=middle;whiteSpace=wrap;rounded=0;fontSize=15;fontColor=#000000;" parent="1" vertex="1">
          <mxGeometry x="1186.74" y="860.5" width="200" height="30" as="geometry" />
        </mxCell>
        <mxCell id="pVwDu6yBrwNiej8qQjBI-243" value="" style="shape=cylinder3;whiteSpace=wrap;html=1;boundedLbl=1;backgroundOutline=1;size=15;fillColor=#FFF2CC;" parent="1" vertex="1">
          <mxGeometry x="1173" y="922" width="120" height="85" as="geometry" />
        </mxCell>
        <mxCell id="pVwDu6yBrwNiej8qQjBI-244" value="&lt;b&gt;CSDL TẠM&lt;br&gt;&lt;/b&gt;" style="text;html=1;strokeColor=none;fillColor=none;align=center;verticalAlign=middle;whiteSpace=wrap;rounded=0;fontSize=15;fontColor=#000000;" parent="1" vertex="1">
          <mxGeometry x="1172" y="954.5" width="126" height="30" as="geometry" />
        </mxCell>
        <mxCell id="pVwDu6yBrwNiej8qQjBI-245" value="" style="shape=cylinder3;whiteSpace=wrap;html=1;boundedLbl=1;backgroundOutline=1;size=15;fillColor=#99CCFF;" parent="1" vertex="1">
          <mxGeometry x="1307" y="890.5" width="230" height="127" as="geometry" />
        </mxCell>
        <mxCell id="pVwDu6yBrwNiej8qQjBI-246" value="KHO DỮ LIỆU" style="text;html=1;strokeColor=none;fillColor=none;align=left;verticalAlign=middle;whiteSpace=wrap;rounded=0;fontSize=15;fontColor=#000000;fontStyle=1" parent="1" vertex="1">
          <mxGeometry x="1378" y="931.5" width="133.85" height="54" as="geometry" />
        </mxCell>
        <mxCell id="pVwDu6yBrwNiej8qQjBI-247" value="" style="aspect=fixed;perimeter=ellipsePerimeter;html=1;align=center;shadow=0;dashed=0;spacingTop=3;image;image=img/lib/active_directory/database_cube.svg;fontSize=20;fillColor=#67AB9F;" parent="1" vertex="1">
          <mxGeometry x="1317" y="925" width="57.15" height="63.5" as="geometry" />
        </mxCell>
        <mxCell id="pVwDu6yBrwNiej8qQjBI-248" value="CSDL BÁO CÁO" style="shape=cylinder3;whiteSpace=wrap;html=1;boundedLbl=1;backgroundOutline=1;size=15;fillColor=#FFFF99;" parent="1" vertex="1">
          <mxGeometry x="1554.27" y="864.5" width="120" height="85" as="geometry" />
        </mxCell>
        <mxCell id="pVwDu6yBrwNiej8qQjBI-250" value="CSDL du lịch VN" style="shape=cylinder3;whiteSpace=wrap;html=1;boundedLbl=1;backgroundOutline=1;size=15;fillColor=#99CCFF;" parent="1" vertex="1">
          <mxGeometry x="589" y="917.5" width="101" height="80" as="geometry" />
        </mxCell>
        <mxCell id="pVwDu6yBrwNiej8qQjBI-251" value="CSDL hướng dẫn viên du lịch" style="shape=cylinder3;whiteSpace=wrap;html=1;boundedLbl=1;backgroundOutline=1;size=15;fillColor=#BADAFF;" parent="1" vertex="1">
          <mxGeometry x="697.5" y="917.5" width="101" height="80" as="geometry" />
        </mxCell>
        <mxCell id="pVwDu6yBrwNiej8qQjBI-252" value="CSDL doanh nghiệp lữ hành" style="shape=cylinder3;whiteSpace=wrap;html=1;boundedLbl=1;backgroundOutline=1;size=15;fillColor=#BADAFF;" parent="1" vertex="1">
          <mxGeometry x="805" y="917.5" width="101" height="80" as="geometry" />
        </mxCell>
        <mxCell id="pVwDu6yBrwNiej8qQjBI-253" value="CSDL lưu trú du lịch" style="shape=cylinder3;whiteSpace=wrap;html=1;boundedLbl=1;backgroundOutline=1;size=15;fillColor=#BADAFF;" parent="1" vertex="1">
          <mxGeometry x="914" y="920.5" width="101" height="80" as="geometry" />
        </mxCell>
        <mxCell id="pVwDu6yBrwNiej8qQjBI-254" value="CSDL khác" style="shape=cylinder3;whiteSpace=wrap;html=1;boundedLbl=1;backgroundOutline=1;size=15;fillColor=#BADAFF;" parent="1" vertex="1">
          <mxGeometry x="1024.5" y="920" width="101" height="80" as="geometry" />
        </mxCell>
        <mxCell id="pVwDu6yBrwNiej8qQjBI-255" value="" style="html=1;shadow=0;dashed=0;align=center;verticalAlign=middle;shape=mxgraph.arrows2.twoWayArrow;dy=0.65;dx=22;fillColor=#99CCFF;rotation=90;" parent="1" vertex="1">
          <mxGeometry x="928" y="769" width="60" height="34" as="geometry" />
        </mxCell>
        <mxCell id="pVwDu6yBrwNiej8qQjBI-256" value="" style="html=1;shadow=0;dashed=0;align=center;verticalAlign=middle;shape=mxgraph.arrows2.twoWayArrow;dy=0.65;dx=22;fillColor=#99CCFF;rotation=90;" parent="1" vertex="1">
          <mxGeometry x="1603" y="765" width="60" height="42" as="geometry" />
        </mxCell>
        <mxCell id="pVwDu6yBrwNiej8qQjBI-257" value="" style="html=1;shadow=0;dashed=0;align=center;verticalAlign=middle;shape=mxgraph.arrows2.twoWayArrow;dy=0.65;dx=22;fillColor=#99CCFF;rotation=90;" parent="1" vertex="1">
          <mxGeometry x="1044.25" y="636.25" width="51" height="42.5" as="geometry" />
        </mxCell>
        <mxCell id="pVwDu6yBrwNiej8qQjBI-258" value="" style="html=1;shadow=0;dashed=0;align=center;verticalAlign=middle;shape=mxgraph.arrows2.twoWayArrow;dy=0.65;dx=22;fillColor=#99CCFF;rotation=90;" parent="1" vertex="1">
          <mxGeometry x="1536.63" y="643.13" width="51.5" height="31.25" as="geometry" />
        </mxCell>
        <mxCell id="pVwDu6yBrwNiej8qQjBI-264" value="" style="html=1;shadow=0;dashed=0;align=center;verticalAlign=middle;shape=mxgraph.arrows2.twoWayArrow;dy=0.65;dx=22;fillColor=#99CCFF;rotation=-90;direction=south;" parent="1" vertex="1">
          <mxGeometry x="2106" y="146" width="56" height="58" as="geometry" />
        </mxCell>
        <mxCell id="pVwDu6yBrwNiej8qQjBI-265" value="" style="html=1;shadow=0;dashed=0;align=center;verticalAlign=middle;shape=mxgraph.arrows2.twoWayArrow;dy=0.65;dx=22;fillColor=#99CCFF;rotation=-90;direction=south;" parent="1" vertex="1">
          <mxGeometry x="2107.5" y="938.5" width="55" height="62" as="geometry" />
        </mxCell>
        <mxCell id="pVwDu6yBrwNiej8qQjBI-266" value="&lt;p style=&quot;margin: 4px 0px 0px ; text-align: center ; font-size: 17px&quot;&gt;&lt;b&gt;NHÓM ỨNG DỤNG NGHIỆP VỤ THÔNG MINH&lt;/b&gt;&lt;/p&gt;" style="verticalAlign=top;align=left;overflow=fill;fontSize=12;fontFamily=Helvetica;html=1;fillColor=#dae8fc;strokeColor=#6c8ebf;" parent="1" vertex="1">
          <mxGeometry x="572" y="295.5" width="608" height="324.5" as="geometry" />
        </mxCell>
        <mxCell id="pVwDu6yBrwNiej8qQjBI-267" value="&lt;p style=&quot;margin: 4px 0px 0px ; text-align: center ; font-size: 17px&quot;&gt;&lt;b&gt;NHÓM ỨNG DỤNG XÚC TIẾN QUẢNG BÁ DU LỊCH&lt;/b&gt;&lt;/p&gt;" style="verticalAlign=top;align=left;overflow=fill;fontSize=12;fontFamily=Helvetica;html=1;fillColor=#dae8fc;strokeColor=#6c8ebf;" parent="1" vertex="1">
          <mxGeometry x="1197.75" y="330" width="670.25" height="290" as="geometry" />
        </mxCell>
        <mxCell id="pVwDu6yBrwNiej8qQjBI-268" value="&lt;p style=&quot;margin: 4px 0px 0px ; text-align: center ; font-size: 17px&quot;&gt;&lt;b&gt;NHÓM ỨNG DỤNG DỊCH VỤ DÙNG CHUNG CỦA NGÀNH DU LỊCH&lt;/b&gt;&lt;/p&gt;" style="verticalAlign=top;align=left;overflow=fill;fontSize=12;fontFamily=Helvetica;html=1;fillColor=#dae8fc;strokeColor=#6c8ebf;" parent="1" vertex="1">
          <mxGeometry x="1197.75" y="165" width="672.25" height="144" as="geometry" />
        </mxCell>
        <mxCell id="pVwDu6yBrwNiej8qQjBI-269" value="" style="rounded=0;whiteSpace=wrap;html=1;fontSize=15;" parent="1" vertex="1">
          <mxGeometry x="584" y="10" width="586" height="190" as="geometry" />
        </mxCell>
        <mxCell id="pVwDu6yBrwNiej8qQjBI-270" value="" style="rounded=0;whiteSpace=wrap;html=1;fontSize=15;fontColor=#333333;fillColor=#f5f5f5;strokeColor=#666666;" parent="1" vertex="1">
          <mxGeometry x="584" y="336.5" width="586" height="61" as="geometry" />
        </mxCell>
        <mxCell id="pVwDu6yBrwNiej8qQjBI-271" value="" style="shape=image;verticalLabelPosition=bottom;labelBackgroundColor=default;verticalAlign=top;aspect=fixed;imageAspect=0;image=https://www.pngkey.com/png/full/231-2317122_delete-database-icon-database.png;" parent="1" vertex="1">
          <mxGeometry x="599.74" y="345.5" width="56.53" height="50" as="geometry" />
        </mxCell>
        <mxCell id="pVwDu6yBrwNiej8qQjBI-272" value="" style="rounded=0;whiteSpace=wrap;html=1;fontSize=15;fontColor=#333333;fillColor=#f5f5f5;strokeColor=#666666;" parent="1" vertex="1">
          <mxGeometry x="584" y="416" width="286" height="61" as="geometry" />
        </mxCell>
        <mxCell id="pVwDu6yBrwNiej8qQjBI-273" value="" style="shape=image;verticalLabelPosition=bottom;labelBackgroundColor=default;verticalAlign=top;aspect=fixed;imageAspect=0;image=https://www.pngkey.com/png/full/231-2317122_delete-database-icon-database.png;" parent="1" vertex="1">
          <mxGeometry x="599.74" y="425" width="56.53" height="50" as="geometry" />
        </mxCell>
        <mxCell id="pVwDu6yBrwNiej8qQjBI-276" value="" style="rounded=0;whiteSpace=wrap;html=1;fontSize=15;fontColor=#333333;fillColor=#f5f5f5;strokeColor=#666666;" parent="1" vertex="1">
          <mxGeometry x="882" y="416" width="288" height="61" as="geometry" />
        </mxCell>
        <mxCell id="pVwDu6yBrwNiej8qQjBI-277" value="" style="shape=image;verticalLabelPosition=bottom;labelBackgroundColor=default;verticalAlign=top;aspect=fixed;imageAspect=0;image=https://www.pngkey.com/png/full/231-2317122_delete-database-icon-database.png;" parent="1" vertex="1">
          <mxGeometry x="897.74" y="425" width="56.53" height="50" as="geometry" />
        </mxCell>
        <mxCell id="pVwDu6yBrwNiej8qQjBI-278" value="" style="rounded=0;whiteSpace=wrap;html=1;fontSize=15;fontColor=#333333;fillColor=#f5f5f5;strokeColor=#666666;" parent="1" vertex="1">
          <mxGeometry x="1224" y="219.5" width="626" height="61" as="geometry" />
        </mxCell>
        <mxCell id="pVwDu6yBrwNiej8qQjBI-279" value="" style="shape=image;verticalLabelPosition=bottom;labelBackgroundColor=default;verticalAlign=top;aspect=fixed;imageAspect=0;image=https://www.pngkey.com/png/full/231-2317122_delete-database-icon-database.png;" parent="1" vertex="1">
          <mxGeometry x="1240" y="230.5" width="56.53" height="50" as="geometry" />
        </mxCell>
        <mxCell id="pVwDu6yBrwNiej8qQjBI-282" value="" style="rounded=0;whiteSpace=wrap;html=1;fontSize=15;fontColor=#333333;fillColor=#f5f5f5;strokeColor=#666666;" parent="1" vertex="1">
          <mxGeometry x="1240" y="395.5" width="610" height="61" as="geometry" />
        </mxCell>
        <mxCell id="pVwDu6yBrwNiej8qQjBI-283" value="" style="shape=image;verticalLabelPosition=bottom;labelBackgroundColor=default;verticalAlign=top;aspect=fixed;imageAspect=0;image=https://www.pngkey.com/png/full/231-2317122_delete-database-icon-database.png;" parent="1" vertex="1">
          <mxGeometry x="1256" y="404" width="56.53" height="50" as="geometry" />
        </mxCell>
        <mxCell id="pVwDu6yBrwNiej8qQjBI-284" value="" style="rounded=0;whiteSpace=wrap;html=1;fontSize=15;fontColor=#333333;fillColor=#f5f5f5;strokeColor=#666666;" parent="1" vertex="1">
          <mxGeometry x="1240" y="471" width="610" height="61" as="geometry" />
        </mxCell>
        <mxCell id="pVwDu6yBrwNiej8qQjBI-285" value="" style="shape=image;verticalLabelPosition=bottom;labelBackgroundColor=default;verticalAlign=top;aspect=fixed;imageAspect=0;image=https://www.pngkey.com/png/full/231-2317122_delete-database-icon-database.png;" parent="1" vertex="1">
          <mxGeometry x="1255.74" y="480" width="56.53" height="50" as="geometry" />
        </mxCell>
        <mxCell id="pVwDu6yBrwNiej8qQjBI-286" value="" style="html=1;shadow=0;dashed=0;align=center;verticalAlign=middle;shape=mxgraph.arrows2.twoWayArrow;dy=0.65;dx=22;fillColor=#99CCFF;rotation=90;direction=south;" parent="1" vertex="1">
          <mxGeometry x="2279.31" y="-175.18" width="62.88" height="69.5" as="geometry" />
        </mxCell>
        <mxCell id="pVwDu6yBrwNiej8qQjBI-287" value="" style="html=1;shadow=0;dashed=0;align=center;verticalAlign=middle;shape=mxgraph.arrows2.twoWayArrow;dy=0.65;dx=22;fillColor=#99CCFF;rotation=90;direction=south;" parent="1" vertex="1">
          <mxGeometry x="2284.31" y="755.69" width="52.88" height="69.5" as="geometry" />
        </mxCell>
        <mxCell id="pVwDu6yBrwNiej8qQjBI-288" value="&lt;b&gt;NỀN TẢNG ĐỊNH DANH, XÁC THỰC (IDM)&lt;/b&gt;" style="rounded=0;whiteSpace=wrap;html=1;fontSize=15;fillColor=#d5e8d4;strokeColor=#82b366;" parent="1" vertex="1">
          <mxGeometry x="1921" y="33.5" width="150" height="92.5" as="geometry" />
        </mxCell>
        <mxCell id="pVwDu6yBrwNiej8qQjBI-289" value="&lt;b&gt;NỀN TẢNG LẮNG NGHE MẠNG XÃ HỘI&lt;/b&gt;" style="rounded=0;whiteSpace=wrap;html=1;fontSize=15;fillColor=#d5e8d4;strokeColor=#82b366;" parent="1" vertex="1">
          <mxGeometry x="1921" y="178" width="150" height="92.5" as="geometry" />
        </mxCell>
        <mxCell id="pVwDu6yBrwNiej8qQjBI-290" value="&lt;b&gt;NỀN TẢNG KÝ SỐ&lt;/b&gt;" style="rounded=0;whiteSpace=wrap;html=1;fontSize=15;fillColor=#d5e8d4;strokeColor=#82b366;" parent="1" vertex="1">
          <mxGeometry x="1921" y="335" width="150" height="92.5" as="geometry" />
        </mxCell>
        <mxCell id="pVwDu6yBrwNiej8qQjBI-292" value="&lt;b&gt;NỀN TẢNG SỐ HÓA&lt;/b&gt;" style="rounded=0;whiteSpace=wrap;html=1;fontSize=15;fillColor=#d5e8d4;strokeColor=#82b366;" parent="1" vertex="1">
          <mxGeometry x="1921" y="488.13" width="150" height="92.5" as="geometry" />
        </mxCell>
        <mxCell id="pVwDu6yBrwNiej8qQjBI-293" value="&lt;b&gt;NỀN TẢNG &lt;br&gt;KHÁC....&lt;/b&gt;" style="rounded=0;whiteSpace=wrap;html=1;fontSize=15;fillColor=#d5e8d4;strokeColor=#82b366;" parent="1" vertex="1">
          <mxGeometry x="1921" y="630" width="150" height="92.5" as="geometry" />
        </mxCell>
        <mxCell id="pVwDu6yBrwNiej8qQjBI-294" value="&lt;font style=&quot;font-size: 20px;&quot;&gt;Module hỗ trợ ra quyết định&lt;/font&gt;" style="text;html=1;strokeColor=none;fillColor=none;align=left;verticalAlign=middle;whiteSpace=wrap;rounded=0;fontSize=15;fontColor=#000000;" parent="1" vertex="1">
          <mxGeometry x="810" y="16.5" width="330" height="30" as="geometry" />
        </mxCell>
        <mxCell id="pVwDu6yBrwNiej8qQjBI-295" value="&lt;font style=&quot;font-size: 20px;&quot;&gt;Hệ thống du lịch thông minh (Web, App)&lt;/font&gt;" style="text;html=1;strokeColor=none;fillColor=none;align=center;verticalAlign=middle;whiteSpace=wrap;rounded=0;fontSize=15;fontColor=#000000;" parent="1" vertex="1">
          <mxGeometry x="1312.27" y="235.5" width="507.73" height="30" as="geometry" />
        </mxCell>
        <mxCell id="pVwDu6yBrwNiej8qQjBI-297" value="&lt;font style=&quot;font-size: 20px;&quot;&gt;Hệ thống quản lý dữ liệu chuyên ngành (Điểm đến, Cơ sở lưu trú ....)&lt;/font&gt;" style="text;html=1;strokeColor=none;fillColor=none;align=center;verticalAlign=middle;whiteSpace=wrap;rounded=0;fontSize=15;fontColor=#000000;" parent="1" vertex="1">
          <mxGeometry x="670" y="354" width="490" height="30" as="geometry" />
        </mxCell>
        <mxCell id="pVwDu6yBrwNiej8qQjBI-299" value="&lt;font color=&quot;#ff3333&quot; style=&quot;font-size: 20px;&quot;&gt;Hệ thống thông tin du lịch và xúc tiến thương mại&lt;/font&gt;" style="text;html=1;strokeColor=none;fillColor=none;align=left;verticalAlign=middle;whiteSpace=wrap;rounded=0;fontSize=15;fontColor=#000000;" parent="1" vertex="1">
          <mxGeometry x="1330" y="408" width="460" height="30" as="geometry" />
        </mxCell>
        <mxCell id="pVwDu6yBrwNiej8qQjBI-300" value="&lt;font color=&quot;#ff3333&quot; style=&quot;font-size: 20px;&quot;&gt;Tạp chí du lịch&lt;/font&gt;" style="text;html=1;strokeColor=none;fillColor=none;align=left;verticalAlign=middle;whiteSpace=wrap;rounded=0;fontSize=15;fontColor=#000000;" parent="1" vertex="1">
          <mxGeometry x="1330" y="483" width="350" height="30" as="geometry" />
        </mxCell>
        <mxCell id="pVwDu6yBrwNiej8qQjBI-301" value="&lt;font size=&quot;1&quot; color=&quot;#ff1d0d&quot;&gt;&lt;span style=&quot;font-size: 20px;&quot;&gt;Hệ thống quản lý doanh nghiệp lữ hành&lt;/span&gt;&lt;/font&gt;" style="text;html=1;strokeColor=none;fillColor=none;align=center;verticalAlign=middle;whiteSpace=wrap;rounded=0;fontSize=15;fontColor=#000000;" parent="1" vertex="1">
          <mxGeometry x="652.27" y="427.25" width="228" height="38.5" as="geometry" />
        </mxCell>
        <mxCell id="pVwDu6yBrwNiej8qQjBI-303" value="" style="strokeWidth=2;html=1;shape=mxgraph.flowchart.multi-document;whiteSpace=wrap;" parent="1" vertex="1">
          <mxGeometry x="737.74" y="20" width="52.87" height="30" as="geometry" />
        </mxCell>
        <mxCell id="pVwDu6yBrwNiej8qQjBI-304" value="&lt;font style=&quot;font-size: 20px;&quot;&gt;Module báo cáo theo chỉ tiêu&lt;/font&gt;" style="text;html=1;strokeColor=none;fillColor=none;align=left;verticalAlign=middle;whiteSpace=wrap;rounded=0;fontSize=15;fontColor=#000000;" parent="1" vertex="1">
          <mxGeometry x="810" y="76" width="330" height="30" as="geometry" />
        </mxCell>
        <mxCell id="pVwDu6yBrwNiej8qQjBI-305" value="" style="strokeWidth=2;html=1;shape=mxgraph.flowchart.multi-document;whiteSpace=wrap;" parent="1" vertex="1">
          <mxGeometry x="739.68" y="69.63" width="49" height="30.37" as="geometry" />
        </mxCell>
        <mxCell id="pVwDu6yBrwNiej8qQjBI-306" value="&lt;font style=&quot;font-size: 20px;&quot;&gt;Module dự báo phân tích xu thế&lt;/font&gt;" style="text;html=1;strokeColor=none;fillColor=none;align=left;verticalAlign=middle;whiteSpace=wrap;rounded=0;fontSize=15;fontColor=#000000;" parent="1" vertex="1">
          <mxGeometry x="813" y="130" width="340" height="30" as="geometry" />
        </mxCell>
        <mxCell id="pVwDu6yBrwNiej8qQjBI-307" value="" style="strokeWidth=2;html=1;shape=mxgraph.flowchart.multi-document;whiteSpace=wrap;" parent="1" vertex="1">
          <mxGeometry x="739.68" y="130" width="49" height="40" as="geometry" />
        </mxCell>
        <mxCell id="pVwDu6yBrwNiej8qQjBI-312" value="" style="rounded=0;whiteSpace=wrap;html=1;fontSize=15;fontColor=#333333;fillColor=#f5f5f5;strokeColor=#666666;" parent="1" vertex="1">
          <mxGeometry x="882" y="487.63" width="288" height="122.37" as="geometry" />
        </mxCell>
        <mxCell id="pVwDu6yBrwNiej8qQjBI-313" value="" style="shape=image;verticalLabelPosition=bottom;labelBackgroundColor=default;verticalAlign=top;aspect=fixed;imageAspect=0;image=https://www.pngkey.com/png/full/231-2317122_delete-database-icon-database.png;" parent="1" vertex="1">
          <mxGeometry x="888.47" y="530" width="56.53" height="50" as="geometry" />
        </mxCell>
        <mxCell id="pVwDu6yBrwNiej8qQjBI-315" value="&lt;font style=&quot;font-size: 20px;&quot;&gt;Hệ thống điều tra, thống kê, phân loại,đánh giá&lt;br&gt;&amp;nbsp;tài nguyên du lịch&lt;/font&gt;" style="text;html=1;strokeColor=none;fillColor=none;align=center;verticalAlign=middle;whiteSpace=wrap;rounded=0;fontSize=15;fontColor=#000000;" parent="1" vertex="1">
          <mxGeometry x="940" y="500" width="220" height="100" as="geometry" />
        </mxCell>
        <mxCell id="pVwDu6yBrwNiej8qQjBI-316" value="&lt;font style=&quot;font-size: 20px;&quot;&gt;&lt;b&gt;Hệ thồng điều hành (IOC)&lt;/b&gt;&lt;/font&gt;" style="text;html=1;strokeColor=#666666;fillColor=#f5f5f5;align=center;verticalAlign=middle;whiteSpace=wrap;rounded=0;fontSize=15;fontColor=#333333;" parent="1" vertex="1">
          <mxGeometry x="593.01" y="14.5" width="130" height="181" as="geometry" />
        </mxCell>
        <mxCell id="pVwDu6yBrwNiej8qQjBI-317" value="" style="shape=image;verticalLabelPosition=bottom;labelBackgroundColor=default;verticalAlign=top;aspect=fixed;imageAspect=0;image=https://www.pngkey.com/png/full/231-2317122_delete-database-icon-database.png;" parent="1" vertex="1">
          <mxGeometry x="629.75" y="19.999999999999993" width="56.53" height="50" as="geometry" />
        </mxCell>
        <mxCell id="pVwDu6yBrwNiej8qQjBI-319" value="" style="rounded=0;whiteSpace=wrap;html=1;fontSize=15;fontColor=#333333;fillColor=#f5f5f5;strokeColor=#666666;" parent="1" vertex="1">
          <mxGeometry x="584" y="545.5" width="286" height="61" as="geometry" />
        </mxCell>
        <mxCell id="pVwDu6yBrwNiej8qQjBI-320" value="" style="shape=image;verticalLabelPosition=bottom;labelBackgroundColor=default;verticalAlign=top;aspect=fixed;imageAspect=0;image=https://www.pngkey.com/png/full/231-2317122_delete-database-icon-database.png;" parent="1" vertex="1">
          <mxGeometry x="599.74" y="554.5" width="56.53" height="50" as="geometry" />
        </mxCell>
        <mxCell id="pVwDu6yBrwNiej8qQjBI-321" value="&lt;font style=&quot;font-size: 20px;&quot;&gt;Hệ thống quản lý tài liệu số&lt;/font&gt;" style="text;html=1;strokeColor=none;fillColor=none;align=center;verticalAlign=middle;whiteSpace=wrap;rounded=0;fontSize=15;fontColor=#000000;" parent="1" vertex="1">
          <mxGeometry x="652.27" y="561" width="195" height="39" as="geometry" />
        </mxCell>
        <mxCell id="pVwDu6yBrwNiej8qQjBI-323" value="" style="rounded=0;whiteSpace=wrap;html=1;fontSize=15;fontColor=#333333;fillColor=#f5f5f5;strokeColor=#666666;" parent="1" vertex="1">
          <mxGeometry x="1240" y="544" width="610" height="61" as="geometry" />
        </mxCell>
        <mxCell id="pVwDu6yBrwNiej8qQjBI-324" value="" style="shape=image;verticalLabelPosition=bottom;labelBackgroundColor=default;verticalAlign=top;aspect=fixed;imageAspect=0;image=https://www.pngkey.com/png/full/231-2317122_delete-database-icon-database.png;" parent="1" vertex="1">
          <mxGeometry x="1255.74" y="553" width="56.53" height="50" as="geometry" />
        </mxCell>
        <mxCell id="pVwDu6yBrwNiej8qQjBI-325" value="&lt;font style=&quot;font-size: 20px;&quot;&gt;Hệ thống quản lý dữ liệu số hóa điểm đến&lt;/font&gt;" style="text;html=1;strokeColor=none;fillColor=none;align=left;verticalAlign=middle;whiteSpace=wrap;rounded=0;fontSize=15;fontColor=#000000;" parent="1" vertex="1">
          <mxGeometry x="1330" y="556" width="420" height="30" as="geometry" />
        </mxCell>
        <mxCell id="pVwDu6yBrwNiej8qQjBI-328" value="&lt;font size=&quot;1&quot; color=&quot;#ff3333&quot;&gt;&lt;span style=&quot;font-size: 20px;&quot;&gt;Hệ thống quản lý HDV du lịch&lt;/span&gt;&lt;/font&gt;" style="text;html=1;strokeColor=none;fillColor=none;align=center;verticalAlign=middle;whiteSpace=wrap;rounded=0;fontSize=15;fontColor=#000000;" parent="1" vertex="1">
          <mxGeometry x="950" y="420" width="210" height="50" as="geometry" />
        </mxCell>
        <mxCell id="b8dOKpOnf9AUa3pXVKSR-1" value="&lt;b&gt;&lt;font style=&quot;font-size: 20px;&quot;&gt;NỀN TẢNG TÍCH HỢP VÀ CHIA SẺ DỮ LIỆU&lt;/font&gt;&lt;/b&gt;" style="rounded=1;whiteSpace=wrap;html=1;fillColor=#8BAB6F;" parent="1" vertex="1">
          <mxGeometry x="819.26" y="695.69" width="898" height="60" as="geometry" />
        </mxCell>
        <mxCell id="b8dOKpOnf9AUa3pXVKSR-2" value="&lt;p style=&quot;margin: 4px 0px 0px ; text-align: center ; font-size: 17px&quot;&gt;&lt;b&gt;NHÓM ỨNG DỤNG CHUNG&lt;/b&gt;&lt;/p&gt;" style="verticalAlign=top;align=left;overflow=fill;fontSize=12;fontFamily=Helvetica;html=1;fillColor=#dae8fc;strokeColor=#6c8ebf;" parent="1" vertex="1">
          <mxGeometry x="1197.75" y="-20" width="672.25" height="170" as="geometry" />
        </mxCell>
        <mxCell id="b8dOKpOnf9AUa3pXVKSR-3" value="" style="rounded=0;whiteSpace=wrap;html=1;fontSize=15;fontColor=#333333;fillColor=#f5f5f5;strokeColor=#666666;" parent="1" vertex="1">
          <mxGeometry x="1224" y="9.629999999999995" width="306" height="61" as="geometry" />
        </mxCell>
        <mxCell id="b8dOKpOnf9AUa3pXVKSR-4" value="" style="shape=image;verticalLabelPosition=bottom;labelBackgroundColor=default;verticalAlign=top;aspect=fixed;imageAspect=0;image=https://www.pngkey.com/png/full/231-2317122_delete-database-icon-database.png;" parent="1" vertex="1">
          <mxGeometry x="1240" y="20.629999999999995" width="56.53" height="50" as="geometry" />
        </mxCell>
        <mxCell id="b8dOKpOnf9AUa3pXVKSR-5" value="" style="rounded=0;whiteSpace=wrap;html=1;fontSize=15;fontColor=#333333;fillColor=#f5f5f5;strokeColor=#666666;" parent="1" vertex="1">
          <mxGeometry x="1547" y="9.63" width="313" height="61" as="geometry" />
        </mxCell>
        <mxCell id="b8dOKpOnf9AUa3pXVKSR-6" value="" style="shape=image;verticalLabelPosition=bottom;labelBackgroundColor=default;verticalAlign=top;aspect=fixed;imageAspect=0;image=https://www.pngkey.com/png/full/231-2317122_delete-database-icon-database.png;" parent="1" vertex="1">
          <mxGeometry x="1563.74" y="16.629999999999995" width="58.79" height="52" as="geometry" />
        </mxCell>
        <mxCell id="b8dOKpOnf9AUa3pXVKSR-7" value="Hệ thống quản lý danh mục dùng chung" style="text;html=1;strokeColor=none;fillColor=none;align=center;verticalAlign=middle;whiteSpace=wrap;rounded=0;fontSize=20;fontColor=#000000;" parent="1" vertex="1">
          <mxGeometry x="1300" y="25.130000000000003" width="220" height="30" as="geometry" />
        </mxCell>
        <mxCell id="b8dOKpOnf9AUa3pXVKSR-8" value="&lt;span style=&quot;font-size: 20px;&quot;&gt;Quản trị hệ thống chung&lt;/span&gt;" style="text;html=1;strokeColor=none;fillColor=none;align=center;verticalAlign=middle;whiteSpace=wrap;rounded=0;fontSize=15;fontColor=#000000;" parent="1" vertex="1">
          <mxGeometry x="1618" y="28.629999999999995" width="215" height="30" as="geometry" />
        </mxCell>
        <mxCell id="b8dOKpOnf9AUa3pXVKSR-9" value="" style="shape=actor;whiteSpace=wrap;html=1;fontSize=14;fillColor=#8BAB6F;" parent="1" vertex="1">
          <mxGeometry x="612" y="-359" width="40" height="60" as="geometry" />
        </mxCell>
        <mxCell id="b8dOKpOnf9AUa3pXVKSR-10" value="" style="shape=actor;whiteSpace=wrap;html=1;fontSize=14;fillColor=#8BAB6F;" parent="1" vertex="1">
          <mxGeometry x="907" y="-358" width="40" height="60" as="geometry" />
        </mxCell>
        <mxCell id="b8dOKpOnf9AUa3pXVKSR-11" value="" style="shape=actor;whiteSpace=wrap;html=1;fontSize=14;fillColor=#8BAB6F;" parent="1" vertex="1">
          <mxGeometry x="1209.75" y="-356" width="40" height="60" as="geometry" />
        </mxCell>
        <mxCell id="b8dOKpOnf9AUa3pXVKSR-12" value="" style="shape=actor;whiteSpace=wrap;html=1;fontSize=14;fillColor=#8BAB6F;" parent="1" vertex="1">
          <mxGeometry x="1496" y="-360" width="40" height="60" as="geometry" />
        </mxCell>
        <mxCell id="b8dOKpOnf9AUa3pXVKSR-13" value="" style="shape=actor;whiteSpace=wrap;html=1;fontSize=14;fillColor=#8BAB6F;" parent="1" vertex="1">
          <mxGeometry x="1792" y="-360" width="40" height="60" as="geometry" />
        </mxCell>
        <mxCell id="b8dOKpOnf9AUa3pXVKSR-40" value="" style="rounded=0;whiteSpace=wrap;html=1;fontSize=15;fontColor=#000000;fillColor=#DBEBEA;" parent="1" vertex="1">
          <mxGeometry x="1710.25" y="855.5" width="340.5" height="197" as="geometry" />
        </mxCell>
        <mxCell id="b8dOKpOnf9AUa3pXVKSR-41" value="&lt;b&gt;CSDL 63 TỈNH THÀNH&lt;br&gt;&lt;/b&gt;" style="text;html=1;strokeColor=none;fillColor=none;align=center;verticalAlign=middle;whiteSpace=wrap;rounded=0;fontSize=15;fontColor=#000000;" parent="1" vertex="1">
          <mxGeometry x="1720.25" y="864.5" width="240" height="30" as="geometry" />
        </mxCell>
        <mxCell id="b8dOKpOnf9AUa3pXVKSR-42" value="CSDL ..." style="shape=cylinder3;whiteSpace=wrap;html=1;boundedLbl=1;backgroundOutline=1;size=15;fillColor=#99CCFF;" parent="1" vertex="1">
          <mxGeometry x="1739.25" y="919" width="71.5" height="71" as="geometry" />
        </mxCell>
        <mxCell id="b8dOKpOnf9AUa3pXVKSR-43" value="CSDL ..." style="shape=cylinder3;whiteSpace=wrap;html=1;boundedLbl=1;backgroundOutline=1;size=15;fillColor=#99CCFF;" parent="1" vertex="1">
          <mxGeometry x="1822" y="918.5" width="71.5" height="71" as="geometry" />
        </mxCell>
        <mxCell id="b8dOKpOnf9AUa3pXVKSR-44" value="CSDL ..." style="shape=cylinder3;whiteSpace=wrap;html=1;boundedLbl=1;backgroundOutline=1;size=15;fillColor=#99CCFF;" parent="1" vertex="1">
          <mxGeometry x="1919.75" y="916" width="71.5" height="71" as="geometry" />
        </mxCell>
        <mxCell id="b8dOKpOnf9AUa3pXVKSR-45" value="CSDL ..." style="shape=cylinder3;whiteSpace=wrap;html=1;boundedLbl=1;backgroundOutline=1;size=15;fillColor=#99CCFF;" parent="1" vertex="1">
          <mxGeometry x="1769.25" y="949" width="71.5" height="71" as="geometry" />
        </mxCell>
        <mxCell id="b8dOKpOnf9AUa3pXVKSR-46" value="CSDL ..." style="shape=cylinder3;whiteSpace=wrap;html=1;boundedLbl=1;backgroundOutline=1;size=15;fillColor=#99CCFF;" parent="1" vertex="1">
          <mxGeometry x="1867.24" y="953" width="71.5" height="71" as="geometry" />
        </mxCell>
        <mxCell id="b8dOKpOnf9AUa3pXVKSR-47" value="CSDL ..." style="shape=cylinder3;whiteSpace=wrap;html=1;boundedLbl=1;backgroundOutline=1;size=15;fillColor=#99CCFF;" parent="1" vertex="1">
          <mxGeometry x="1961.75" y="953" width="71.5" height="71" as="geometry" />
        </mxCell>
        <mxCell id="b8dOKpOnf9AUa3pXVKSR-48" value="" style="endArrow=classic;startArrow=classic;html=1;rounded=0;fontSize=14;fontColor=#FF3333;entryX=0.5;entryY=1;entryDx=0;entryDy=0;" parent="1" target="pVwDu6yBrwNiej8qQjBI-198" edge="1">
          <mxGeometry width="50" height="50" relative="1" as="geometry">
            <mxPoint x="723" y="-210" as="sourcePoint" />
            <mxPoint x="770" y="-310" as="targetPoint" />
          </mxGeometry>
        </mxCell>
        <mxCell id="b8dOKpOnf9AUa3pXVKSR-49" value="" style="endArrow=classic;startArrow=classic;html=1;rounded=0;fontSize=14;fontColor=#FF3333;entryX=0.5;entryY=1;entryDx=0;entryDy=0;" parent="1" target="pVwDu6yBrwNiej8qQjBI-199" edge="1">
          <mxGeometry width="50" height="50" relative="1" as="geometry">
            <mxPoint x="1021" y="-220" as="sourcePoint" />
            <mxPoint x="733" y="-320" as="targetPoint" />
          </mxGeometry>
        </mxCell>
        <mxCell id="b8dOKpOnf9AUa3pXVKSR-50" value="" style="endArrow=classic;startArrow=classic;html=1;rounded=0;fontSize=14;fontColor=#FF3333;entryX=0.628;entryY=1.039;entryDx=0;entryDy=0;entryPerimeter=0;" parent="1" target="pVwDu6yBrwNiej8qQjBI-200" edge="1">
          <mxGeometry width="50" height="50" relative="1" as="geometry">
            <mxPoint x="1352" y="-220" as="sourcePoint" />
            <mxPoint x="1067" y="-330" as="targetPoint" />
          </mxGeometry>
        </mxCell>
        <mxCell id="b8dOKpOnf9AUa3pXVKSR-51" value="" style="endArrow=classic;startArrow=classic;html=1;rounded=0;fontSize=14;fontColor=#FF3333;entryX=0.75;entryY=1;entryDx=0;entryDy=0;" parent="1" target="pVwDu6yBrwNiej8qQjBI-201" edge="1">
          <mxGeometry width="50" height="50" relative="1" as="geometry">
            <mxPoint x="1684" y="-220" as="sourcePoint" />
            <mxPoint x="1041" y="-310" as="targetPoint" />
          </mxGeometry>
        </mxCell>
        <mxCell id="b8dOKpOnf9AUa3pXVKSR-52" value="" style="endArrow=classic;startArrow=classic;html=1;rounded=0;fontSize=14;fontColor=#FF3333;" parent="1" edge="1">
          <mxGeometry width="50" height="50" relative="1" as="geometry">
            <mxPoint x="1930" y="-220" as="sourcePoint" />
            <mxPoint x="1930" y="-290" as="targetPoint" />
          </mxGeometry>
        </mxCell>
        <mxCell id="P4MSnm5AEiezFjPZue9H-5" value="" style="rounded=0;whiteSpace=wrap;html=1;fontSize=15;fontColor=#333333;fillColor=#f5f5f5;strokeColor=#666666;" parent="1" vertex="1">
          <mxGeometry x="584" y="207.5" width="586" height="61" as="geometry" />
        </mxCell>
        <mxCell id="P4MSnm5AEiezFjPZue9H-6" value="" style="shape=image;verticalLabelPosition=bottom;labelBackgroundColor=default;verticalAlign=top;aspect=fixed;imageAspect=0;image=https://www.pngkey.com/png/full/231-2317122_delete-database-icon-database.png;" parent="1" vertex="1">
          <mxGeometry x="625.74" y="213" width="56.53" height="50" as="geometry" />
        </mxCell>
        <mxCell id="P4MSnm5AEiezFjPZue9H-7" value="Hệ thống quản lý chỉ tiêu ngành du lịch" style="text;html=1;strokeColor=none;fillColor=none;align=center;verticalAlign=middle;whiteSpace=wrap;rounded=0;fontSize=20;" parent="1" vertex="1">
          <mxGeometry x="704" y="220" width="456" height="40" as="geometry" />
        </mxCell>
        <mxCell id="MaDXFfwrm1o8qLIMjKg1-1" value="CSDL GIS" style="shape=cylinder3;whiteSpace=wrap;html=1;boundedLbl=1;backgroundOutline=1;size=15;fillColor=#f8cecc;strokeColor=#b85450;" vertex="1" parent="1">
          <mxGeometry x="1554.27" y="954.5" width="120" height="85" as="geometry" />
        </mxCell>
        <mxCell id="MaDXFfwrm1o8qLIMjKg1-9" value="" style="rounded=0;whiteSpace=wrap;html=1;fontSize=15;fontColor=#333333;fillColor=#f5f5f5;strokeColor=#666666;" vertex="1" parent="1">
          <mxGeometry x="1224" y="79" width="636" height="61" as="geometry" />
        </mxCell>
        <mxCell id="MaDXFfwrm1o8qLIMjKg1-10" value="" style="shape=image;verticalLabelPosition=bottom;labelBackgroundColor=default;verticalAlign=top;aspect=fixed;imageAspect=0;image=https://www.pngkey.com/png/full/231-2317122_delete-database-icon-database.png;" vertex="1" parent="1">
          <mxGeometry x="1241.47" y="84.5" width="56.53" height="50" as="geometry" />
        </mxCell>
        <mxCell id="MaDXFfwrm1o8qLIMjKg1-11" value="Hệ thống quản lý bản đồ số ngành du lịch" style="text;html=1;strokeColor=none;fillColor=none;align=center;verticalAlign=middle;whiteSpace=wrap;rounded=0;fontSize=20;fontColor=#000000;" vertex="1" parent="1">
          <mxGeometry x="1310" y="94.5" width="530" height="30" as="geometry" />
        </mxCell>
      </root>
    </mxGraphModel>
  </diagram>
</mxfile>
